<svg width="56" height="53" viewBox="0 0 56 53" fill="none" xmlns="http://www.w3.org/2000/svg">
<path d="M38.0402 0.0437449C34.8041 -0.450611 31.3759 3.30068 30.3886 8.47688C29.4013 13.624 31.184 18.2186 34.4201 18.742C37.6289 19.2655 41.0844 15.5142 42.0991 10.338C43.1139 5.19086 41.2764 0.596261 38.0402 0.0437449ZM18.4313 0.0437449C15.1677 0.596261 13.3577 5.19086 14.3175 10.338C15.3597 15.5142 18.7878 19.2655 22.024 18.742C25.2876 18.2186 27.0702 13.624 26.0555 8.47688C25.0682 3.30068 21.64 -0.450611 18.4313 0.0437449ZM52.7126 13.4204C49.5862 11.9955 45.3353 14.5836 43.1139 19.091C41.0296 23.6856 41.7426 28.5128 44.8416 29.9378C47.9407 31.3627 52.1641 28.8036 54.3307 24.2381C56.4973 19.6726 55.7294 14.8163 52.7126 13.4204ZM3.3475 13.4204C0.330746 14.8163 -0.43716 19.6726 1.72942 24.2381C3.896 28.8036 8.11947 31.3627 11.2185 29.9378C14.3175 28.5128 15.0306 23.6856 12.9463 19.091C10.7249 14.5836 6.47396 11.9955 3.3475 13.4204ZM7.92749 44.7684C7.81779 47.5019 9.7924 50.5262 12.151 51.6603C17.06 54.0449 22.8742 49.1013 28.3318 49.1013C33.7893 49.1013 39.6583 54.2484 44.4851 51.6603C47.2276 50.2354 49.12 46.4551 48.7634 43.3144C48.2698 38.9816 43.3607 36.6552 40.4536 33.4855C36.5867 29.3852 33.8442 21.6791 28.3318 21.6791C22.8467 21.6791 19.9397 29.2689 16.2373 33.4855C13.1931 37.0332 8.11947 40.0284 7.92749 44.7684Z" fill="#4EC690"/>
</svg>
